<?xml version="1.0" encoding="UTF-8"?><svg id="Layer_1" xmlns="http://www.w3.org/2000/svg" xmlns:xlink="http://www.w3.org/1999/xlink" viewBox="0 0 500 100.23"><defs><style>.cls-1{fill:#da5427;}.cls-2{fill:#f68620;}.cls-3{fill:#1c8a85;}.cls-4{fill:url(#linear-gradient);}</style><linearGradient id="linear-gradient" x1="40.04" y1="45.2" x2="40.04" y2="5" gradientUnits="userSpaceOnUse"><stop offset=".13" stop-color="#da5427"/><stop offset=".13" stop-color="#da5426"/><stop offset=".36" stop-color="#e96f23"/><stop offset=".56" stop-color="#f28020"/><stop offset=".72" stop-color="#f68620"/></linearGradient></defs><path class="cls-4" d="M57.56,32.83c-1.12,4.54-6.58,9.5-10.92,12.37.24-.9,1.9-5.23,1.31-9.47-2.11,2.51-4.64,3.16-4.64,3.16,0,0-1.37-3.74-2.11-5.76-.45-1.23-.66-2.32-.88-3.42-.59-2.91.01-5.56.01-5.56,0,0-6.3,4.48-7.9,10.43-1.73,6.41-1.04,9.92-1.04,9.92,0,0-9.19-7.92-9.19-16.36,0-5.16,3.02-11.36,7.82-14.73-.74,2.65-.94,5.53-.36,8.28,3.39-5.26,7.63-10.68,6.91-16.69,0,0,2.51,1.25,3.46,1.84,9.09,5.59,10.86,14.84,8.6,24.06,3.55-3.3,4.86-8.06,4.53-12.37.48.46.91.96,1.33,1.51,2.81,3.65,4.08,8.74,3.08,12.8Z"/><path class="cls-3" d="M72.9,43.23H.86c-.59,0-.96.58-.83,1.16,1.04,4.46,2.52,7.82,4.28,10.38,8.36,12.27,22.68,6.47,22.68,18v.62s-1.88,6.95-9.93,6.06v8.08h13.26s2.51-7.29,10.66-7.29,10.67,7.29,10.67,7.29h13.26v-8.08c-8.08.88-9.93-6.06-9.93-6.06v-1.69c2.17-8.76,10.75-10.75,15.47-11.16,1.04-.08,1.9-.09,2.46-.08.49.01.88-.38.88-.88v-15.47c0-.49-.38-.88-.87-.88ZM32.82,73.4h-1.74v-9.19l-11.33-7.24-1.97-4.61c-.11.01-.21.03-.32.03-1.44,0-2.61-1.18-2.61-2.61s1.18-2.61,2.61-2.61,2.61,1.18,2.61,2.61c0,.71-.28,1.35-.74,1.82l1.81,4.19,11.67,7.47v10.14ZM38.35,73.4h-1.74v-12.48l-5.52-3.47-.21-5.18c-1.07-.33-1.85-1.32-1.85-2.5,0-1.44,1.18-2.61,2.61-2.61s2.61,1.18,2.61,2.61c0,1.1-.69,2.03-1.64,2.43l.17,4.27,5.56,3.49v13.44ZM43.83,73.4h-1.74v-13.5l5.15-2.38-.11-5.34c-.95-.38-1.62-1.32-1.62-2.42,0-1.44,1.18-2.61,2.61-2.61s2.61,1.18,2.61,2.61c0,1.19-.79,2.18-1.86,2.51l.13,6.35-5.18,2.39v12.37ZM62.67,52.36l-1.78,4.6-11.33,7.25v9.19h-1.74v-10.14l11.65-7.46,1.48-3.8c-.74-.46-1.23-1.28-1.23-2.22,0-1.44,1.16-2.61,2.6-2.61s2.61,1.18,2.61,2.61c0,1.32-.98,2.42-2.26,2.59Z"/><polygon class="cls-1" points="119.19 43.25 84.77 43.25 84.77 52.29 97.03 52.29 97.03 87.47 106.93 87.47 106.93 52.29 119.19 52.29 119.19 43.25"/><path class="cls-1" d="M154.77,54.28l-4.54,18.61c-.1.5-.21,1-.33,1.52-.13-.54-.26-1.08-.41-1.62l-5.1-18.51h-10.52l-4.78,18.51c-.15.54-.29,1.08-.41,1.62-.11-.52-.22-1.03-.33-1.53l-4.22-18.6h-11.11l10.34,33.19h10.5l4.91-18.64c.13-.5.26-1.01.37-1.53.13.52.28,1.03.44,1.55l5.35,18.62h9.93l10.34-33.19h-10.43Z"/><path class="cls-1" d="M196.07,62.21c-1.5-2.62-3.6-4.74-6.24-6.31-2.65-1.57-5.72-2.36-9.13-2.36s-6.43.79-9.1,2.36c-2.66,1.56-4.77,3.69-6.28,6.31-1.5,2.62-2.26,5.56-2.26,8.73s.76,6.09,2.26,8.7c1.5,2.6,3.61,4.72,6.28,6.28,2.67,1.57,5.73,2.36,9.1,2.36s6.49-.79,9.13-2.36c2.64-1.56,4.74-3.67,6.24-6.28,1.5-2.6,2.26-5.53,2.26-8.7s-.76-6.1-2.26-8.73ZM184.93,78.26c-1.19.76-2.62,1.15-4.24,1.15s-3.05-.39-4.24-1.15c-1.2-.77-2.15-1.81-2.8-3.09-.66-1.29-1-2.71-1-4.23s.34-3.01,1-4.29c.66-1.28,1.6-2.31,2.8-3.09,1.2-.76,2.62-1.15,4.24-1.15s3.04.39,4.24,1.15c1.2.77,2.14,1.81,2.8,3.09.66,1.29,1,2.73,1,4.29s-.34,2.95-1,4.23c-.66,1.28-1.6,2.32-2.8,3.09Z"/><path class="cls-1" d="M225.95,64.06c1.82-.9,3.15-1.97,3.98-3.2,1.07-1.6,1.61-3.5,1.61-5.67,0-3.54-1.32-6.45-3.91-8.66-2.56-2.18-6.3-3.28-11.09-3.28h-15.13v44.23h16.66c4.79,0,8.66-1.13,11.5-3.36,2.89-2.27,4.36-5.34,4.36-9.13,0-2.79-.72-5.19-2.15-7.16-1.18-1.63-3.14-2.89-5.84-3.76ZM211.32,69.27h5.96c2.18,0,3.86.41,5.01,1.23,1.09.77,1.62,1.8,1.62,3.14,0,1.66-.53,2.84-1.61,3.59-1.15.8-2.84,1.2-5.02,1.2h-5.96v-9.16ZM220.28,59.86c-.85.73-2.38,1.1-4.54,1.1h-4.43v-8.73h4.43c2.14,0,3.66.4,4.51,1.2.85.8,1.26,1.81,1.26,3.1,0,1.53-.4,2.62-1.24,3.33Z"/><path class="cls-1" d="M241.65,41.9c-1.56,0-2.91.55-3.99,1.63-1.08,1.08-1.63,2.39-1.63,3.87s.55,2.85,1.63,3.93c1.08,1.08,2.43,1.63,3.99,1.63s2.96-.54,4.02-1.6c1.06-1.06,1.6-2.4,1.6-3.96,0-1.48-.54-2.78-1.6-3.86-1.07-1.09-2.42-1.64-4.03-1.64Z"/><rect class="cls-1" x="236.88" y="54.28" width="9.6" height="33.19"/><path class="cls-1" d="M270.2,62.65v-8.37h-6.74v-7.37l-9.6,1v6.37h-4.48v8.37h4.48v14.29c0,3.65.92,6.35,2.72,8.02,1.79,1.66,4.38,2.51,7.68,2.51h5.2v-8.68h-4.09c-.95,0-1.91-.27-1.91-2.28v-13.86h6.74Z"/><polygon class="cls-2" points="273.81 87.42 283.16 87.42 283.16 69.89 299.46 69.89 299.46 61.53 283.16 61.53 283.16 52.24 299.77 52.24 299.77 43.75 273.81 43.75 273.81 87.42"/><path class="cls-2" d="M328.09,56.37c-2.6-1.54-5.63-2.32-8.99-2.32s-6.34.78-8.96,2.32c-2.62,1.54-4.7,3.63-6.18,6.21-1.48,2.58-2.23,5.47-2.23,8.59s.75,6,2.23,8.56c1.48,2.56,3.55,4.64,6.18,6.18,2.62,1.54,5.64,2.32,8.96,2.32s6.39-.78,8.99-2.32c2.6-1.54,4.66-3.61,6.14-6.18,1.48-2.56,2.23-5.44,2.23-8.56s-.75-6.01-2.23-8.59c-1.48-2.58-3.54-4.67-6.14-6.21ZM323.49,78.72c-1.24.79-2.72,1.2-4.39,1.2s-3.15-.4-4.39-1.2c-1.24-.8-2.22-1.87-2.9-3.19-.68-1.33-1.03-2.79-1.03-4.36s.35-3.09,1.03-4.42c.68-1.32,1.66-2.4,2.9-3.19,1.24-.79,2.72-1.2,4.39-1.2s3.15.4,4.39,1.2c1.24.8,2.22,1.87,2.9,3.19.68,1.33,1.03,2.82,1.03,4.42s-.35,3.03-1.03,4.36c-.68,1.32-1.66,2.4-2.9,3.19Z"/><path class="cls-2" d="M360.33,72.64c0,2.62-.63,4.54-1.87,5.73-1.27,1.21-2.69,1.79-4.36,1.79-1.95,0-3.39-.58-4.43-1.77-1.03-1.19-1.56-3.12-1.56-5.75v-17.85h-9.04v19.88c0,2.71.55,5.11,1.64,7.14,1.09,2.03,2.6,3.62,4.5,4.72,1.89,1.09,4.04,1.65,6.38,1.65,2.55,0,4.63-.48,6.18-1.44,1.13-.7,2.08-1.66,2.82-2.87v3.57h8.8v-32.64h-9.04v17.85Z"/><path class="cls-2" d="M397.31,55.69h0c-1.89-1.09-4.04-1.65-6.38-1.65-4.34,0-7.48,1.45-9.36,4.3v-3.56h-8.92v32.64h9.04v-17.85c0-2.66.63-4.59,1.87-5.76,1.25-1.17,2.72-1.77,4.36-1.77,1.93,0,3.51.59,4.7,1.76,1.19,1.17,1.79,3.11,1.79,5.76v17.85h9.04v-19.87c0-2.75-.55-5.16-1.64-7.17-1.09-2.02-2.61-3.59-4.5-4.68Z"/><path class="cls-2" d="M430.93,58.67c-.8-1.18-1.82-2.17-3.02-2.97-1.61-1.06-3.85-1.6-6.65-1.6-2.25,0-4.38.46-6.32,1.35-1.94.9-3.66,2.14-5.12,3.7-1.45,1.56-2.61,3.39-3.45,5.45-.83,2.06-1.25,4.28-1.25,6.61,0,3.12.73,5.99,2.16,8.55,1.43,2.56,3.4,4.63,5.83,6.14,2.44,1.52,5.18,2.3,8.14,2.3s5.24-.58,6.87-1.72c1.22-.85,2.24-1.92,3.04-3.18v4.11h8.8v-45.51h-9.04v16.76ZM422.61,79.98c-1.67,0-3.16-.41-4.42-1.23-1.27-.82-2.26-1.91-2.96-3.26-.7-1.35-1.06-2.8-1.06-4.33,0-1.61.36-3.09,1.06-4.42.7-1.32,1.7-2.4,2.96-3.2,1.26-.79,2.75-1.2,4.42-1.2s3.28.41,4.54,1.23c1.27.82,2.26,1.9,2.97,3.23.7,1.33,1.06,2.81,1.06,4.42s-.36,3.03-1.06,4.36c-.7,1.32-1.7,2.4-2.96,3.2-1.26.79-2.79,1.2-4.54,1.2Z"/><path class="cls-2" d="M454.88,55.69c-1.13.83-2.01,1.92-2.64,3.25v-4.15h-8.8v32.64h9.04v-16.69c0-2.53.78-4.54,2.33-5.97,1.55-1.44,3.49-2.17,5.75-2.17h1.55v-8.53l-.36-.02c-2.85-.16-5.17.38-6.87,1.64Z"/><path class="cls-2" d="M489.34,54.78l-6.28,18.46c-.38,1.09-.71,2.22-.99,3.37-.28-1.15-.6-2.28-.98-3.37l-6.28-18.46h-10.84l12.79,30.8-.39,1.21c-.43,1.32-1.13,2.43-2.1,3.3-.94.85-2.18,1.28-3.67,1.28-1.31,0-2.54-.14-3.65-.42l-.41-.1-1.34,8.65.32.1c.84.25,1.79.42,2.84.51,1.03.08,1.97.12,2.79.12,3.84,0,6.92-1.03,9.15-3.07,2.2-2.01,4-4.69,5.37-7.95l14.32-34.43h-10.66Z"/></svg>